<?xml version="1.0" encoding="UTF-8" standalone="no"?>
<!-- Created with Inkscape (http://www.inkscape.org/) -->

<svg
   xmlns:osb="http://www.openswatchbook.org/uri/2009/osb"
   xmlns:dc="http://purl.org/dc/elements/1.1/"
   xmlns:cc="http://creativecommons.org/ns#"
   xmlns:rdf="http://www.w3.org/1999/02/22-rdf-syntax-ns#"
   xmlns:svg="http://www.w3.org/2000/svg"
   xmlns="http://www.w3.org/2000/svg"
   xmlns:xlink="http://www.w3.org/1999/xlink"
   xmlns:sodipodi="http://sodipodi.sourceforge.net/DTD/sodipodi-0.dtd"
   xmlns:inkscape="http://www.inkscape.org/namespaces/inkscape"
   sodipodi:docname="logo.svg"
   id="SVGRoot"
   version="1.1"
   viewBox="0 0 85 55"
   height="55mm"
   width="85mm"
   inkscape:version="0.92.5 (2060ec1f9f, 2020-04-08)">
  <defs
     id="defs6288">
    <linearGradient
       inkscape:collect="always"
       xlink:href="#linearGradient6075"
       id="linearGradient6085"
       x1="-1.0074321"
       y1="336.939"
       x2="612.64862"
       y2="336.939"
       gradientUnits="userSpaceOnUse" />
    <linearGradient
       id="linearGradient6075"
       osb:paint="solid">
      <stop
         style="stop-color:#f2cd92;stop-opacity:1;"
         offset="0"
         id="stop6073" />
    </linearGradient>
    <linearGradient
       inkscape:collect="always"
       xlink:href="#linearGradient6075"
       id="linearGradient6382"
       gradientUnits="userSpaceOnUse"
       x1="-1.0074321"
       y1="336.939"
       x2="612.64862"
       y2="336.939" />
    <linearGradient
       inkscape:collect="always"
       xlink:href="#linearGradient6075"
       id="linearGradient6384"
       gradientUnits="userSpaceOnUse"
       x1="-1.0074321"
       y1="336.939"
       x2="612.64862"
       y2="336.939" />
    <linearGradient
       inkscape:collect="always"
       xlink:href="#linearGradient6075"
       id="linearGradient6386"
       gradientUnits="userSpaceOnUse"
       x1="-1.0074321"
       y1="336.939"
       x2="612.64862"
       y2="336.939" />
  </defs>
  <sodipodi:namedview
     id="base"
     pagecolor="#ffffff"
     bordercolor="#666666"
     borderopacity="1.0"
     inkscape:pageopacity="0.0"
     inkscape:pageshadow="2"
     inkscape:zoom="11.313708"
     inkscape:cx="160.12774"
     inkscape:cy="123.63554"
     inkscape:document-units="mm"
     inkscape:current-layer="layer1"
     showgrid="false"
     inkscape:window-width="1920"
     inkscape:window-height="1016"
     inkscape:window-x="0"
     inkscape:window-y="27"
     inkscape:window-maximized="1" />
  <metadata
     id="metadata6291">
    <rdf:RDF>
      <cc:Work
         rdf:about="">
        <dc:format>image/svg+xml</dc:format>
        <dc:type
           rdf:resource="http://purl.org/dc/dcmitype/StillImage" />
        <dc:title></dc:title>
      </cc:Work>
    </rdf:RDF>
  </metadata>
  <g
     inkscape:label="Layer 1"
     inkscape:groupmode="layer"
     id="layer1">
    <g
       transform="matrix(0.04644557,0,0,0.04644557,34.568189,11.933228)"
       id="g8"
       style="fill:url(#linearGradient6085);fill-opacity:1;stroke:#815f36;stroke-width:3.14346447;stroke-miterlimit:4;stroke-dasharray:none;stroke-opacity:1">
      <path
         style="clip-rule:evenodd;fill:url(#linearGradient6382);fill-opacity:1;fill-rule:evenodd;stroke:#815f36;stroke-width:3.14346447;stroke-miterlimit:4;stroke-dasharray:none;stroke-opacity:1"
         inkscape:connector-curvature="0"
         d="m 277.855,196.459 c -14.928,1.55 -12.294,-14.464 -25.35,-14.787 6.642,-9.756 35.569,0.902 25.35,14.787 z"
         id="path2" />
      <path
         style="clip-rule:evenodd;fill:url(#linearGradient6384);fill-opacity:1;fill-rule:evenodd;stroke:#815f36;stroke-width:3.14346447;stroke-miterlimit:4;stroke-dasharray:none;stroke-opacity:1"
         inkscape:connector-curvature="0"
         d="m 362.354,179.56 c -10.798,3.287 -11.307,16.86 -25.352,16.899 -9.081,-14.294 15.092,-21.947 25.352,-16.899 z"
         id="path4" />
      <path
         style="clip-rule:evenodd;fill:url(#linearGradient6386);fill-opacity:1;fill-rule:evenodd;stroke:#815f36;stroke-width:3.14346447;stroke-miterlimit:4;stroke-dasharray:none;stroke-opacity:1"
         inkscape:connector-curvature="0"
         d="m 214.481,0 c 7.746,0 15.491,0 23.237,0 0,0.705 0,1.408 0,2.113 39.293,0.139 16.868,61.997 52.811,65.486 C 286.444,48.215 277.407,53.323 275.742,38.024 271.006,-5.503 339.229,-8.282 337.002,35.913 336.245,50.961 323.36,51.27 320.103,67.6 356.364,63.722 335.322,2.542 372.916,0 c 8.45,0 16.899,0 25.351,0 40.751,11.959 109.353,44.849 160.547,63.374 17.23,6.235 49.815,12.677 52.812,23.238 6.727,23.724 -21.392,20.712 -35.912,29.574 -12.573,7.674 -19.185,26.95 -42.248,21.124 -3.019,16.672 -24.617,23.742 -42.25,19.013 -6.771,24.371 -42.02,8.751 -54.925,19.013 11.989,35.413 -10.61,69.856 -48.587,73.936 26.76,28.785 5.622,76.424 -27.462,82.387 27.726,13.994 17.02,64.177 -10.562,69.712 20.806,19.332 10.719,56.278 -8.451,69.71 9.725,2.431 6.477,11.981 6.338,14.789 20.932,0.25 5.97,41.272 -8.45,44.361 20.512,14.498 7.432,50.414 -8.449,59.148 23.618,17.896 5.356,57.138 -12.674,61.262 1.988,13.255 -1.546,20.988 -10.563,23.237 -0.704,0 -1.409,0 -2.112,0 -7.706,-3.56 -9.656,-12.876 -8.45,-25.349 -20.171,1.743 -36.585,-43.896 -12.675,-57.038 -12.589,-10.81 -30.299,-41.419 -10.563,-59.147 -19.216,-14.449 -21.635,-49.553 0,-63.374 -21.953,-10.054 -27.993,-50.211 -8.449,-67.6 -29.419,-6.15 -35.471,-53.567 -12.675,-71.825 -33.896,-3.575 -50.987,-54.341 -25.35,-80.273 -32.521,-4.729 -65.621,-33.28 -46.474,-69.711 -13.851,-16.929 -39.236,-1.063 -54.925,-14.788 -0.998,-0.873 -4.554,-7.809 -6.337,-8.45 -7.323,-2.628 -18.275,2.561 -25.35,0 C 84.008,152.681 80.094,141.41 72.947,137.31 52.735,137.102 42.625,126.792 32.81,116.186 15.03,112.136 -1.622,106.959 -0.99,84.499 71.621,57.121 139.417,24.926 214.481,0 Z m 76.048,92.949 C 288.672,71.617 272.182,81.305 260.955,65.487 249.455,49.282 256.629,7.276 225.043,16.901 c 29.794,17.382 15.201,79.156 65.486,76.048 z M 322.216,23.237 C 313.832,8.507 281.84,12.53 288.418,42.25 c 16.228,20.445 45.175,0.972 33.798,-19.013 z m 27.464,44.362 c -10.941,14.144 -28.757,3.334 -29.576,25.35 50.264,2.38 37.31,-58.457 65.486,-78.161 -34.218,-3.878 -23.263,36.461 -35.91,52.811 z M 104.633,63.374 C 144.455,76.595 179.986,37.82 214.481,25.35 168.38,20.158 135.821,46.63 104.633,63.374 Z M 396.153,27.462 C 429.81,33.81 480.32,87.903 508.114,59.149 470.44,51.614 440.354,14.438 396.153,27.462 Z M 138.432,82.387 c 36.693,9.847 67.172,-20.974 92.949,-35.913 -2.944,-2.69 -0.919,-10.347 -6.338,-10.561 -26.489,17.872 -61.534,27.189 -86.611,46.474 z M 379.254,50.7 c 31.623,7.718 55.108,44.041 92.948,31.687 -26.413,-18.652 -59.545,-30.589 -88.723,-46.474 -2.341,3.995 -2.696,9.98 -4.225,14.787 z M 307.43,223.922 c 2.166,-48.592 6.193,-117.49 -2.112,-160.548 -1.409,0 -2.817,0 -4.225,0 7.087,48.54 -4.443,115.699 6.337,160.548 z M 15.909,90.836 C 38.393,116.065 79.217,85.377 102.519,78.16 96.7,74.827 91.397,70.974 87.732,65.486 65.342,75.487 41.102,83.639 15.909,90.836 Z m 158.434,6.337 c 22.847,16.467 50.167,-7.865 65.488,-19.013 -4.737,-2.303 -3.713,-10.369 -8.45,-12.674 -17.408,12.168 -39.027,20.123 -57.038,31.687 z m 196.46,-16.899 c 17.676,7.001 45.509,36.759 65.487,14.787 -21.71,-7.865 -38.407,-20.742 -59.149,-29.575 -0.551,6.492 -4.582,9.501 -6.338,14.788 z M 520.788,65.486 c -0.019,9.136 -9.964,8.345 -12.674,14.788 27.115,3.923 64.513,36.717 88.725,10.563 C 569.72,84.155 545.28,74.794 520.788,65.486 Z m -468.967,50.7 c 30.371,17.743 64.971,-9.599 86.611,-21.125 -25.986,-16.799 -61.315,11.157 -86.611,21.125 z M 472.202,97.173 c 24.187,8.144 60.102,40.222 88.724,16.9 -29.604,-4.626 -64.332,-39.672 -88.724,-16.9 z m -255.609,16.901 c 20.707,5.498 35.181,-6.698 48.587,-14.788 -16.716,-15.364 -35.411,3.044 -48.587,14.788 z m 130.973,-12.675 c 14.146,6.135 26.692,18.361 46.475,12.674 -11.307,-11.31 -34.232,-32.473 -46.475,-12.674 z m -188.01,0 c -19.708,14.795 -49.116,19.89 -67.599,35.911 31.933,17.915 62.429,-13.071 86.612,-23.236 -8.999,-1.565 -12.568,-8.558 -19.013,-12.675 z m 289.41,0 c -2.542,8.02 -12.356,8.768 -16.899,14.787 26.465,6.757 58.784,42.681 88.722,19.013 -24.092,-11.116 -48.825,-21.592 -71.823,-33.8 z M 256.73,122.523 c 17.652,1.458 26.224,-6.167 33.799,-14.787 -14.52,-2.955 -25.076,6.104 -33.799,14.787 z m 63.374,-12.674 c 9.889,5.602 16.08,14.903 33.8,12.674 -7.909,-8.099 -21.98,-20.937 -33.8,-12.674 z M 136.319,154.21 c 34.18,12.748 58.166,-18.555 82.386,-29.574 -33.235,-8.708 -57.115,17.446 -82.386,29.574 z m 255.609,-27.461 c 26.645,7.371 52.004,44.317 84.499,25.35 -29.751,-6.134 -52.58,-41.008 -84.499,-25.35 z m -211.246,38.023 c 11.346,2.205 31.469,-4.117 46.474,-10.563 11.893,-5.107 21.1,-16.652 29.575,-21.125 -29.478,-7.09 -52.985,19.265 -76.049,31.688 z m 173.221,-29.573 c 19.653,12.292 54.898,30.659 76.05,27.461 -25.068,-8.289 -48.96,-41.019 -76.05,-27.461 z m -103.51,19.011 c 5.937,2.513 12.146,4.754 19.013,6.338 7.415,-6.668 17.359,-10.808 23.237,-19.012 -20.485,-7.665 -29.218,2.799 -42.25,12.674 z m 69.711,-12.674 c 4.271,10.517 16.341,13.235 23.238,21.124 4.461,-4.693 13.781,-4.526 19.013,-8.45 -14.999,-6.568 -22.03,-22.361 -42.251,-12.674 z m -35.912,29.574 c 5.764,-1.538 4.252,4.198 8.45,4.226 0,-4.226 0,-8.45 0,-12.675 -5.375,0.257 -8.192,3.074 -8.45,8.449 z m 38.024,6.337 c 0.652,-4.98 7.337,-3.929 6.339,-10.561 -5.765,1.538 -4.252,-4.198 -8.451,-4.226 1.258,4.377 -2.611,13.878 2.112,14.787 z m -133.085,35.912 c 8.654,22.199 60.991,35.943 82.387,14.787 -23.364,-7.618 -57.472,-4.493 -57.037,-35.912 25.152,-15.339 43.801,17.847 71.824,6.337 -8.381,-56.456 -117.689,-37.835 -97.174,14.788 z m 73.937,71.824 c -1.141,-32.254 55.357,-29.489 86.611,-35.912 31.749,-6.523 75.567,-19.021 78.161,-44.362 5.209,-50.898 -98.191,-53.411 -99.286,-6.337 21.977,14.878 63.7,-30.261 71.824,-2.113 6.588,22.83 -49.822,30.684 -78.163,35.913 -32.105,5.922 -75.378,12.252 -88.723,27.461 -23.828,27.159 2.016,54.882 29.576,61.262 9.267,-3.406 17.312,-8.037 25.349,-12.674 -7.063,-2.429 -24.759,-6.546 -25.349,-23.238 z m 29.574,-63.374 c -1.256,-4.375 2.611,-13.876 -2.113,-14.787 -19.471,17.618 -44.706,-8.894 -63.374,-4.226 19.667,8.501 42.169,14.165 65.487,19.013 z m 27.462,-14.787 c 0,4.929 0,9.858 0,14.787 22.879,-5.991 50.045,-7.697 65.486,-21.124 -21.934,3.773 -43.596,20.592 -65.486,6.337 z m 52.812,105.624 c 27.319,-19.495 21.987,-72.242 -33.8,-50.7 49.036,53.316 -59.458,46.65 -84.499,82.387 -16.13,23.019 1.107,40.478 21.125,50.698 3.854,-6.004 13.554,-6.162 16.899,-12.674 -61.12,-40.82 47.416,-46.261 80.275,-69.711 z m -63.374,-8.45 c 0,-11.971 0,-23.942 0,-35.912 -2.112,0 -4.225,0 -6.337,0 2.215,11.867 -5.564,33.73 6.337,35.912 z m 12.674,-4.225 c 7.713,-4.964 18.928,-6.422 21.126,-16.9 -4.646,-7.325 -13.519,-10.424 -23.238,-12.675 1.364,9.2 -2.754,23.881 2.112,29.575 z m -33.799,-27.462 c -3.672,5.482 -14.426,3.882 -12.675,14.787 2.987,6.167 11.604,6.703 16.899,10.563 -2.21,-7.648 4.793,-24.508 -4.224,-25.35 z m -6.337,160.548 c 2.475,-30.55 84.286,-32.89 84.5,-69.711 0.091,-15.854 -16.771,-37.533 -40.138,-19.013 52.397,37.566 -53.145,45.359 -61.261,78.16 -3.184,12.866 -0.798,37.02 27.461,38.024 6.889,-15.091 -11.915,-10.762 -10.562,-27.46 z m 27.462,-54.925 c -1.362,-9.199 2.755,-23.88 -2.112,-29.574 -6.246,3.039 -7.83,29.539 2.112,29.574 z m 12.674,-6.338 c 2.124,-4.213 9.343,-3.332 8.451,-10.562 -1.539,-4.797 -6.356,-6.317 -10.563,-8.449 1.31,5.732 -2.68,16.764 2.112,19.011 z m -27.462,-2.111 c -1.256,-4.377 2.611,-13.879 -2.112,-14.788 -6.228,5.203 -7.742,11.98 2.112,14.788 z m 54.926,52.81 c -3.949,-13.087 -17.498,-14.535 -29.576,-4.223 40.184,36.476 -48.165,47.95 -50.698,78.159 -0.482,5.745 0.987,27.29 21.124,21.126 5.131,-6.674 -8.905,-8.299 -6.337,-19.013 8.075,-27.229 78.249,-33.733 65.487,-76.049 z m -40.138,25.351 c -1.348,-7.808 2.735,-21.042 -2.112,-25.351 -6.398,5.214 -6.347,26.003 2.112,25.351 z m 35.912,59.148 c 2.453,-9.36 -5.166,-43.319 -25.351,-21.123 8.568,1.289 8.301,11.416 10.563,19.01 -21.692,14.453 -84.5,47.04 -35.913,73.938 -37.316,-40.554 44.185,-46.961 50.701,-71.825 z m -38.024,0 c 2.919,-1.03 5.127,-19.043 -2.112,-16.899 -1.85,2.1 -5.88,18.292 2.112,16.899 z m 31.686,54.925 c 3.026,-20.033 -10.854,-35.277 -21.123,-19.013 31.441,35.845 -41.96,43.208 -33.801,76.049 9.533,-27.787 40.372,-34.267 54.924,-57.036 z m -29.574,8.449 c -1.337,-7.112 2.722,-19.622 -2.112,-23.236 -2.687,4.227 -4.94,22.142 2.112,23.236 z m 23.238,44.363 c -3.159,-6.763 -7.302,-23.596 -16.9,-16.899 8.46,1.462 9.612,21.282 16.9,16.899 z m -25.35,50.7 c 2.079,-15.084 6.279,-49.696 -2.112,-61.264 1.395,19.729 -2.802,45.051 2.112,61.264 z m -10.562,-27.463 c -1.31,-5.732 2.681,-16.765 -2.113,-19.013 -1.401,4.794 -5.46,17.714 2.113,19.013 z m 23.236,0 c 3.614,-4.234 3.076,-17.125 -2.11,-19.013 1.307,5.733 -2.683,16.765 2.11,19.013 z"
         id="path6" />
    </g>
    <text
       y="34.909588"
       x="6.7429352"
       style="font-style:normal;font-variant:normal;font-weight:normal;font-stretch:normal;font-size:16.83585167px;line-height:1.25;font-family:AlgerianMesaW00-Regular;-inkscape-font-specification:AlgerianMesaW00-Regular;letter-spacing:0px;word-spacing:0px;fill:#000000;fill-opacity:1;stroke:none;stroke-width:0.42089629"
       id="flowRoot3745"
       xml:space="preserve"><tspan
         id="tspan6455"
         sodipodi:role="line"
         x="6.7429352"
         y="34.909588"
         style="stroke-width:0.42089629">ASM  MC</tspan></text>
  </g>
</svg>
